<svg xmlns="http://www.w3.org/2000/svg" xmlns:xlink="http://www.w3.org/1999/xlink" width="43" height="43" viewBox="0 0 43 43">
  <defs>
    <clipPath id="clip-path">
      <rect id="Rectangle_126" data-name="Rectangle 126" width="43" height="43" transform="translate(-0.333 -0.333)" fill="#fff"/>
    </clipPath>
  </defs>
  <g id="Group_191" data-name="Group 191" transform="translate(0.333 0.333)" clip-path="url(#clip-path)">
    <path id="Path_582" data-name="Path 582" d="M112.658,4074.107h14.465a12.421,12.421,0,0,0,12.42-12.427H125.078A12.429,12.429,0,0,0,112.658,4074.107Z" transform="translate(-111.781 -4031.44)" fill="#f22bb2"/>
    <path id="Path_583" data-name="Path 583" d="M113.143,4051.427v18.253a12.419,12.419,0,0,0,12.42-12.414V4039A12.421,12.421,0,0,0,113.143,4051.427Z" transform="translate(-111.619 -4039)" fill="#8c30f5"/>
    <path id="Path_584" data-name="Path 584" d="M150.063,4039H135.6a12.422,12.422,0,0,0-12.42,12.427h14.465A12.429,12.429,0,0,0,150.063,4039Z" transform="translate(-108.274 -4039)" fill="#fe9a22"/>
    <path id="Path_585" data-name="Path 585" d="M146.447,4065.707V4047.44a12.419,12.419,0,0,0-12.42,12.413v18.267A12.417,12.417,0,0,0,146.447,4065.707Z" transform="translate(-104.658 -4036.187)" fill="#2ec5ce"/>
  </g>
</svg>
