<svg xmlns="http://www.w3.org/2000/svg" width="39.12" height="39.12" viewBox="0 0 39.12 39.12">
  <g id="Group_2096" data-name="Group 2096" transform="translate(-1409.773 -5108)">
    <g id="Group_157" data-name="Group 157" transform="translate(0 1240.756)">
      <path id="Path_214" data-name="Path 214" d="M1071.557,2872.83h-12.44a1.776,1.776,0,0,1-1.787-1.774v-12.44a1.775,1.775,0,0,1,1.787-1.786h12.44a1.774,1.774,0,0,1,1.773,1.786v12.44a1.776,1.776,0,0,1-1.773,1.774Z" transform="translate(352.443 1010.414)" fill="#7c3aed"/>
      <path id="Path_215" data-name="Path 215" d="M1071.557,2890.17h-12.44a1.776,1.776,0,0,1-1.787-1.786v-12.44a1.776,1.776,0,0,1,1.787-1.773h12.44a1.776,1.776,0,0,1,1.773,1.773v12.44a1.775,1.775,0,0,1-1.773,1.786Z" transform="translate(352.443 1016.194)" fill="#7c3aed"/>
      <path id="Path_216" data-name="Path 216" d="M1073.33,2858.17h17.787v3.547H1073.33Z" transform="translate(357.777 1010.86)" fill="#e55c8c"/>
      <path id="Path_217" data-name="Path 217" d="M1091.117,2875.5H1073.33v3.56h17.787Z" transform="translate(357.777 1016.637)" fill="#e55c8c"/>
      <path id="Path_218" data-name="Path 218" d="M1091.117,2882.17H1073.33v3.547h17.787Z" transform="translate(357.777 1018.86)" fill="#c4b5fd"/>
      <path id="Path_219" data-name="Path 219" d="M1091.117,2864.83H1073.33v3.56h17.787Z" transform="translate(357.777 1013.081)" fill="#c4b5fd"/>
    </g>
  </g>
</svg>
