<svg xmlns="http://www.w3.org/2000/svg" width="39.112" height="39.12" viewBox="0 0 39.112 39.12">
  <g id="Group_2098" data-name="Group 2098" transform="translate(-993.777 -5108)">
    <g id="Group_160" data-name="Group 160" transform="translate(0 1240.756)">
      <path id="Path_209" data-name="Path 209" d="M752.445,2856.83h-5.333a1.777,1.777,0,0,0-1.779,1.786v35.547a1.778,1.778,0,0,0,1.779,1.786h5.333Z" transform="translate(248.444 1010.414)" fill="#c4b5fd"/>
      <path id="Path_210" data-name="Path 210" d="M753.333,2895.95h17.779v-39.12H753.333Zm8.889-7.12a1.776,1.776,0,1,1,1.257-.52A1.778,1.778,0,0,1,762.222,2888.83Zm0-24.88a1.776,1.776,0,1,1-1.257.52A1.778,1.778,0,0,1,762.222,2863.95Zm0,10.667a1.776,1.776,0,1,1-1.257.52A1.778,1.778,0,0,1,762.222,2874.616Z" transform="translate(251.111 1010.414)" fill="#7c3aed"/>
      <path id="Path_211" data-name="Path 211" d="M774.666,2856.83h-5.333v39.12h5.333a1.778,1.778,0,0,0,1.779-1.786v-35.547a1.777,1.777,0,0,0-1.779-1.786Z" transform="translate(256.444 1010.414)" fill="#6273f5"/>
    </g>
  </g>
</svg>
