<svg xmlns="http://www.w3.org/2000/svg" xmlns:xlink="http://www.w3.org/1999/xlink" width="41" height="41" viewBox="0 0 41 41">
  <defs>
    <linearGradient id="linear-gradient" x1="0.5" y1="1" x2="0.5" gradientUnits="objectBoundingBox">
      <stop offset="0.25" stop-color="#dbdbda"/>
      <stop offset="1" stop-color="#fff"/>
    </linearGradient>
    <filter id="Ellipse_25" x="0" y="0" width="41" height="41" filterUnits="userSpaceOnUse">
      <feOffset dy="2" input="SourceAlpha"/>
      <feGaussianBlur stdDeviation="2" result="blur"/>
      <feFlood flood-opacity="0.267"/>
      <feComposite operator="in" in2="blur"/>
      <feComposite in="SourceGraphic"/>
    </filter>
    <radialGradient id="radial-gradient" cx="0.57" cy="0.39" r="0.61" gradientUnits="objectBoundingBox">
      <stop offset="0" stop-color="#2abce1"/>
      <stop offset="0.114" stop-color="#2abbe1"/>
      <stop offset="1" stop-color="#3375f8"/>
    </radialGradient>
    <linearGradient id="linear-gradient-2" x1="0.491" y1="0.357" x2="0.257" y2="0.776" gradientUnits="objectBoundingBox">
      <stop offset="0" stop-opacity="0"/>
      <stop offset="1" stop-opacity="0.2"/>
    </linearGradient>
    <filter id="Path_572" x="6.269" y="4.849" width="29.573" height="30.071" filterUnits="userSpaceOnUse">
      <feOffset dy="1" input="SourceAlpha"/>
      <feGaussianBlur stdDeviation="2" result="blur-2"/>
      <feFlood/>
      <feComposite operator="in" in2="blur-2"/>
      <feComposite in="SourceGraphic"/>
    </filter>
  </defs>
  <g id="safari-seeklogo.com" transform="translate(2 1.762)">
    <g id="Group_177" data-name="Group 177" transform="translate(4 2.265)">
      <g transform="matrix(1, 0, 0, 1, -6, -4.03)" filter="url(#Ellipse_25)">
        <circle id="Ellipse_25-2" data-name="Ellipse 25" cx="14.5" cy="14.5" r="14.5" transform="translate(6 4)" fill="url(#linear-gradient)"/>
      </g>
      <circle id="Ellipse_26" data-name="Ellipse 26" cx="13.398" cy="13.398" r="13.398" transform="translate(1.086 0.933)" fill="url(#radial-gradient)"/>
      <g id="Group_176" data-name="Group 176" transform="translate(1.166 0.922)">
        <path id="Path_444" data-name="Path 444" d="M113.223,8.2a.164.164,0,0,1-.17-.158V5.68a.17.17,0,0,1,.339,0V8.045a.172.172,0,0,1-.17.158Z" transform="translate(-99.882 -4.933)" fill="#f3f3f3"/>
        <path id="Path_445" data-name="Path 445" d="M113.137,8.129a.177.177,0,0,1-.181-.17V5.595a.181.181,0,0,1,.362,0V7.96a.184.184,0,0,1-.181.17Zm0-2.682a.16.16,0,0,0-.158.147V7.96a.152.152,0,0,0,.158.147.16.16,0,0,0,.159-.147V5.595a.169.169,0,0,0-.159-.147Z" transform="translate(-99.796 -4.848)" fill="#fff"/>
        <path id="Path_446" data-name="Path 446" d="M123,7.269a.172.172,0,0,1-.158-.17l.079-1.052A.165.165,0,0,1,123.1,5.9a.172.172,0,0,1,.158.17l-.079,1.052a.165.165,0,0,1-.181.147Z" transform="translate(-108.524 -5.266)" fill="#f3f3f3"/>
        <path id="Path_447" data-name="Path 447" d="M122.911,7.2a.184.184,0,0,1-.17-.181l.079-1.052a.178.178,0,0,1,.192-.158.184.184,0,0,1,.17.181L123.1,7.038a.17.17,0,0,1-.192.158Zm.1-1.369a.151.151,0,0,0-.159.136l-.079,1.052a.159.159,0,0,0,.147.158.151.151,0,0,0,.158-.136l.079-1.052a.169.169,0,0,0-.147-.158Z" transform="translate(-108.438 -5.182)" fill="#fff"/>
        <path id="Path_448" data-name="Path 448" d="M130.422,10.252a.174.174,0,0,1-.136-.192l.464-2.32a.157.157,0,0,1,.192-.124.174.174,0,0,1,.136.192l-.464,2.32a.169.169,0,0,1-.192.124Z" transform="translate(-115.101 -6.778)" fill="#f3f3f3"/>
        <path id="Path_449" data-name="Path 449" d="M130.336,10.182a.185.185,0,0,1-.147-.2l.464-2.32a.182.182,0,0,1,.215-.136.185.185,0,0,1,.147.2l-.464,2.32a.192.192,0,0,1-.215.136Zm.532-2.637a.162.162,0,0,0-.181.113l-.464,2.32a.16.16,0,0,0,.124.181.162.162,0,0,0,.181-.113l.464-2.32a.163.163,0,0,0-.125-.181Z" transform="translate(-115.015 -6.697)" fill="#fff"/>
        <path id="Path_450" data-name="Path 450" d="M142.106,11.367a.169.169,0,0,1-.124-.2l.283-1.018a.162.162,0,0,1,.2-.113.169.169,0,0,1,.125.2l-.283,1.018a.162.162,0,0,1-.2.113Z" transform="translate(-125.427 -8.911)" fill="#f3f3f3"/>
        <path id="Path_451" data-name="Path 451" d="M142.076,11.3a.172.172,0,0,1-.124-.215l.283-1.018a.181.181,0,0,1,.215-.124.172.172,0,0,1,.125.215l-.283,1.018a.175.175,0,0,1-.215.124Zm.373-1.324a.157.157,0,0,0-.192.1l-.283,1.018a.144.144,0,0,0,.113.181.157.157,0,0,0,.192-.1l.283-1.018a.162.162,0,0,0-.113-.181Z" transform="translate(-125.397 -8.831)" fill="#fff"/>
        <path id="Path_452" data-name="Path 452" d="M147.049,16.292a.162.162,0,0,1-.091-.215l.905-2.184a.157.157,0,0,1,.215-.079.162.162,0,0,1,.091.215l-.905,2.184a.157.157,0,0,1-.215.079Z" transform="translate(-129.816 -12.241)" fill="#f3f3f3"/>
        <path id="Path_453" data-name="Path 453" d="M146.976,16.256a.176.176,0,0,1-.1-.226l.905-2.184a.18.18,0,0,1,.238-.091.176.176,0,0,1,.1.226l-.905,2.184a.178.178,0,0,1-.238.091Zm1.03-2.478a.154.154,0,0,0-.2.079l-.905,2.184a.147.147,0,0,0,.091.192.154.154,0,0,0,.2-.079l.905-2.184a.161.161,0,0,0-.091-.192Z" transform="translate(-129.742 -12.194)" fill="#fff"/>
        <path id="Path_454" data-name="Path 454" d="M160.211,19.572a.171.171,0,0,1-.079-.215l.475-.939a.165.165,0,0,1,.226-.068.171.171,0,0,1,.079.215l-.475.939a.166.166,0,0,1-.226.068Z" transform="translate(-141.45 -16.245)" fill="#f3f3f3"/>
        <path id="Path_455" data-name="Path 455" d="M160.159,19.414a.173.173,0,0,1-.079-.238l.475-.939a.177.177,0,1,1,.317.158l-.475.939a.173.173,0,0,1-.238.079Zm.622-1.233a.149.149,0,0,0-.2.068l-.475.939a.167.167,0,0,0,.068.2.149.149,0,0,0,.2-.068l.475-.939a.167.167,0,0,0-.068-.2Z" transform="translate(-141.398 -16.076)" fill="#fff"/>
        <path id="Path_456" data-name="Path 456" d="M162.267,26.248a.156.156,0,0,1-.045-.226l1.313-1.958a.162.162,0,0,1,.226-.045.156.156,0,0,1,.045.226L162.493,26.2a.153.153,0,0,1-.226.045Z" transform="translate(-143.28 -21.246)" fill="#f3f3f3"/>
        <path id="Path_457" data-name="Path 457" d="M162.245,26.136a.2.2,0,0,1-.057-.249l1.313-1.958a.179.179,0,0,1,.249-.045.2.2,0,0,1,.057.249l-1.313,1.958a.181.181,0,0,1-.249.045Zm1.494-2.229a.158.158,0,0,0-.215.034L162.211,25.9a.147.147,0,0,0,.045.2.158.158,0,0,0,.215-.034l1.313-1.946a.161.161,0,0,0-.045-.215Z" transform="translate(-143.257 -21.123)" fill="#fff"/>
        <path id="Path_458" data-name="Path 458" d="M176.492,31.317a.163.163,0,0,1-.034-.226l.656-.826a.161.161,0,0,1,.226-.023.163.163,0,0,1,.034.226l-.656.826a.161.161,0,0,1-.226.023Z" transform="translate(-155.852 -26.734)" fill="#f3f3f3"/>
        <path id="Path_459" data-name="Path 459" d="M176.37,31.179a.179.179,0,0,1-.034-.249l.656-.826a.168.168,0,0,1,.249-.023.179.179,0,0,1,.034.249l-.656.826a.168.168,0,0,1-.249.023Zm.849-1.075a.148.148,0,0,0-.215.023l-.656.826a.16.16,0,0,0,.034.215.148.148,0,0,0,.215-.023l.656-.826a.159.159,0,0,0-.034-.215Z" transform="translate(-155.742 -26.585)" fill="#fff"/>
        <path id="Path_460" data-name="Path 460" d="M175.637,39.608a.151.151,0,0,1,0-.226l1.675-1.663a.16.16,0,1,1,.226.226l-1.663,1.663a.164.164,0,0,1-.238,0Z" transform="translate(-155.111 -33.328)" fill="#f3f3f3"/>
        <path id="Path_461" data-name="Path 461" d="M175.54,39.5a.178.178,0,0,1,0-.249l1.675-1.663a.176.176,0,0,1,.249.249L175.789,39.5a.178.178,0,0,1-.249,0Zm1.912-1.9a.157.157,0,0,0-.215,0l-1.675,1.663a.152.152,0,1,0,.215.215l1.675-1.663a.157.157,0,0,0,0-.215Z" transform="translate(-155.025 -33.211)" fill="#fff"/>
        <path id="Path_462" data-name="Path 462" d="M190.242,46.356a.161.161,0,0,1,.011-.226l.8-.679a.165.165,0,0,1,.215.249l-.8.679a.161.161,0,0,1-.226-.023Z" transform="translate(-168.019 -40.167)" fill="#f3f3f3"/>
        <path id="Path_463" data-name="Path 463" d="M190.111,46.219a.177.177,0,0,1,.011-.249l.8-.679a.17.17,0,0,1,.249.023.177.177,0,0,1-.011.249l-.8.679a.169.169,0,0,1-.249-.023Zm1.041-.894a.158.158,0,0,0-.215-.023l-.8.679a.157.157,0,0,0,.2.238l.8-.679a.147.147,0,0,0,.011-.215Z" transform="translate(-167.899 -40.018)" fill="#fff"/>
        <path id="Path_464" data-name="Path 464" d="M186.44,55.611a.153.153,0,0,1,.045-.226l1.969-1.313a.173.173,0,0,1,.226.045.153.153,0,0,1-.045.226l-1.969,1.313a.178.178,0,0,1-.226-.045Z" transform="translate(-164.669 -47.792)" fill="#f3f3f3"/>
        <path id="Path_465" data-name="Path 465" d="M186.344,55.385a.181.181,0,0,1,.045-.249l1.969-1.313a.174.174,0,0,1,.249.057.181.181,0,0,1-.045.249l-1.969,1.313a.174.174,0,0,1-.249-.057Zm2.24-1.482a.147.147,0,0,0-.2-.045l-1.969,1.313a.156.156,0,0,0,.17.26l1.969-1.313a.16.16,0,0,0,.034-.215Z" transform="translate(-164.584 -47.566)" fill="#fff"/>
        <path id="Path_466" data-name="Path 466" d="M200.938,63.659a.165.165,0,0,1,.057-.226l.917-.521a.168.168,0,0,1,.226.068.165.165,0,0,1-.057.226l-.917.521a.168.168,0,0,1-.226-.068Z" transform="translate(-177.481 -55.602)" fill="#f3f3f3"/>
        <path id="Path_467" data-name="Path 467" d="M200.841,63.67a.176.176,0,0,1,.057-.238l.917-.521a.182.182,0,0,1,.238.068.176.176,0,0,1-.057.238l-.917.521a.182.182,0,0,1-.238-.068Zm1.2-.679a.142.142,0,0,0-.2-.057l-.917.521a.163.163,0,0,0-.057.2.142.142,0,0,0,.2.057l.917-.521a.155.155,0,0,0,.057-.2Z" transform="translate(-177.396 -55.602)" fill="#fff"/>
        <path id="Path_468" data-name="Path 468" d="M194.524,73.787a.158.158,0,0,1,.091-.215l2.184-.905a.172.172,0,0,1,.215.091.158.158,0,0,1-.091.215l-2.184.905a.162.162,0,0,1-.215-.091Z" transform="translate(-171.825 -64.225)" fill="#f3f3f3"/>
        <path id="Path_469" data-name="Path 469" d="M194.427,73.714a.188.188,0,0,1,.091-.238l2.184-.905a.176.176,0,0,1,.226.1.188.188,0,0,1-.091.238l-2.184.905a.176.176,0,0,1-.226-.1Zm2.478-1.03a.161.161,0,0,0-.192-.091l-2.184.905a.153.153,0,0,0-.079.2.161.161,0,0,0,.192.091l2.184-.905a.154.154,0,0,0,.079-.2Z" transform="translate(-171.74 -64.141)" fill="#fff"/>
        <path id="Path_470" data-name="Path 470" d="M208.2,83a.164.164,0,0,1,.1-.215l1-.328a.16.16,0,0,1,.2.1.164.164,0,0,1-.1.215l-1,.328a.156.156,0,0,1-.2-.1Z" transform="translate(-183.902 -72.877)" fill="#f3f3f3"/>
        <path id="Path_471" data-name="Path 471" d="M208.1,83.017a.173.173,0,0,1,.113-.226l1-.328a.182.182,0,0,1,.226.113.173.173,0,0,1-.113.226l-1,.328a.192.192,0,0,1-.226-.113Zm1.313-.43a.157.157,0,0,0-.192-.1l-1,.328a.151.151,0,0,0-.091.192.157.157,0,0,0,.192.1l1-.328a.156.156,0,0,0,.091-.192Z" transform="translate(-183.817 -72.878)" fill="#fff"/>
        <path id="Path_472" data-name="Path 472" d="M199.525,93.806a.153.153,0,0,1,.124-.192l2.32-.453a.165.165,0,0,1,.192.136.153.153,0,0,1-.124.192l-2.32.453a.167.167,0,0,1-.192-.136Z" transform="translate(-176.249 -82.332)" fill="#f3f3f3"/>
        <path id="Path_473" data-name="Path 473" d="M199.336,93.635a.182.182,0,0,1,.136-.215l2.32-.453a.176.176,0,0,1,.2.147.182.182,0,0,1-.136.215l-2.32.453a.176.176,0,0,1-.2-.147Zm2.637-.509A.152.152,0,0,0,201.8,93l-2.32.453a.147.147,0,0,0-.113.181.152.152,0,0,0,.17.124l2.32-.453a.153.153,0,0,0,.113-.181Z" transform="translate(-176.082 -82.161)" fill="#fff"/>
        <path id="Path_474" data-name="Path 474" d="M211.951,103.855a.157.157,0,0,1,.136-.181l1.041-.124a.165.165,0,0,1,.181.147.157.157,0,0,1-.136.181l-1.041.124a.172.172,0,0,1-.181-.147Z" transform="translate(-187.227 -91.51)" fill="#f3f3f3"/>
        <path id="Path_475" data-name="Path 475" d="M211.857,103.685a.18.18,0,0,1,.147-.2l1.041-.124a.176.176,0,0,1,.192.158.18.18,0,0,1-.147.2l-1.041.124a.176.176,0,0,1-.192-.158Zm1.369-.158a.16.16,0,0,0-.17-.136l-1.041.125a.152.152,0,0,0-.125.17.161.161,0,0,0,.17.136l1.041-.125a.152.152,0,0,0,.124-.17Z" transform="translate(-187.144 -91.34)" fill="#fff"/>
        <path id="Path_476" data-name="Path 476" d="M201.113,114.289a.164.164,0,0,1,.158-.17h2.365a.17.17,0,0,1,0,.339h-2.365a.164.164,0,0,1-.158-.17Z" transform="translate(-177.656 -100.846)" fill="#f3f3f3"/>
        <path id="Path_477" data-name="Path 477" d="M201.016,114.2a.177.177,0,0,1,.17-.181h2.365a.181.181,0,0,1,0,.362h-2.365a.177.177,0,0,1-.17-.181Zm2.682.011a.16.16,0,0,0-.147-.158h-2.365a.153.153,0,0,0-.147.158.16.16,0,0,0,.147.158h2.365a.169.169,0,0,0,.147-.158Z" transform="translate(-177.57 -100.76)" fill="#fff"/>
        <path id="Path_478" data-name="Path 478" d="M211.866,124.158a.172.172,0,0,1,.17-.158l1.052.079a.165.165,0,0,1,.147.181.172.172,0,0,1-.17.158l-1.052-.079a.184.184,0,0,1-.147-.181Z" transform="translate(-187.153 -109.573)" fill="#f3f3f3"/>
        <path id="Path_479" data-name="Path 479" d="M211.769,124.073a.184.184,0,0,1,.181-.17l1.052.079a.178.178,0,0,1,.158.192.184.184,0,0,1-.181.17l-1.052-.079a.2.2,0,0,1-.158-.192Zm1.38.1a.143.143,0,0,0-.136-.158l-1.052-.079a.159.159,0,0,0-.159.147.143.143,0,0,0,.136.158l1.052.079a.169.169,0,0,0,.158-.147Z" transform="translate(-187.067 -109.487)" fill="#fff"/>
        <path id="Path_480" data-name="Path 480" d="M199.358,131.391a.174.174,0,0,1,.192-.136l2.32.464a.157.157,0,0,1,.125.192.174.174,0,0,1-.192.136l-2.32-.464a.169.169,0,0,1-.124-.192Z" transform="translate(-176.105 -115.979)" fill="#f3f3f3"/>
        <path id="Path_481" data-name="Path 481" d="M199.261,131.305a.185.185,0,0,1,.2-.147l2.32.464a.182.182,0,0,1,.136.215.185.185,0,0,1-.2.147l-2.32-.464a.192.192,0,0,1-.136-.215Zm2.637.532a.162.162,0,0,0-.113-.181l-2.32-.464a.16.16,0,0,0-.181.125.162.162,0,0,0,.113.181l2.32.464a.164.164,0,0,0,.181-.125Z" transform="translate(-176.019 -115.893)" fill="#fff"/>
        <path id="Path_482" data-name="Path 482" d="M208.044,143.075a.169.169,0,0,1,.2-.124l1.018.283a.162.162,0,0,1,.113.2.169.169,0,0,1-.2.125l-1.018-.283a.162.162,0,0,1-.113-.2Z" transform="translate(-183.772 -126.305)" fill="#f3f3f3"/>
        <path id="Path_483" data-name="Path 483" d="M207.953,143.045a.172.172,0,0,1,.215-.124l1.018.283a.181.181,0,0,1,.125.215.172.172,0,0,1-.215.125l-1.018-.283a.175.175,0,0,1-.124-.215Zm1.324.373a.157.157,0,0,0-.1-.192l-1.018-.283a.144.144,0,0,0-.181.113.158.158,0,0,0,.1.192l1.018.283a.162.162,0,0,0,.181-.113Z" transform="translate(-183.693 -126.275)" fill="#fff"/>
        <path id="Path_484" data-name="Path 484" d="M194.33,147.921a.162.162,0,0,1,.215-.091l2.184.905a.172.172,0,0,1,.091.215.162.162,0,0,1-.215.091l-2.184-.905a.162.162,0,0,1-.091-.215Z" transform="translate(-171.654 -130.608)" fill="#f3f3f3"/>
        <path id="Path_485" data-name="Path 485" d="M194.234,147.751a.176.176,0,0,1,.226-.1l2.184.905a.18.18,0,0,1,.091.238.176.176,0,0,1-.226.1l-2.184-.905a.188.188,0,0,1-.091-.238Zm2.478,1.03a.154.154,0,0,0-.079-.2l-2.184-.905a.147.147,0,0,0-.192.091.154.154,0,0,0,.079.2l2.184.905a.151.151,0,0,0,.192-.091Z" transform="translate(-171.569 -130.449)" fill="#fff"/>
        <path id="Path_486" data-name="Path 486" d="M200.572,161.083a.171.171,0,0,1,.215-.079l.939.475a.162.162,0,0,1,.068.226.171.171,0,0,1-.215.079l-.939-.475a.168.168,0,0,1-.068-.226Z" transform="translate(-177.16 -142.243)" fill="#f3f3f3"/>
        <path id="Path_487" data-name="Path 487" d="M200.477,160.934a.173.173,0,0,1,.238-.079l.939.475a.177.177,0,0,1-.158.317l-.939-.475a.17.17,0,0,1-.079-.238Zm1.222.622a.149.149,0,0,0-.068-.2l-.939-.475a.167.167,0,0,0-.2.068.149.149,0,0,0,.068.2l.939.475a.149.149,0,0,0,.2-.068Z" transform="translate(-177.077 -142.105)" fill="#fff"/>
        <path id="Path_488" data-name="Path 488" d="M186.247,163.042a.155.155,0,0,1,.226-.045l1.969,1.313a.162.162,0,0,1,.045.226.155.155,0,0,1-.226.045l-1.969-1.313a.156.156,0,0,1-.045-.226Z" transform="translate(-164.498 -143.987)" fill="#f3f3f3"/>
        <path id="Path_489" data-name="Path 489" d="M186.126,162.923a.2.2,0,0,1,.249-.057l1.969,1.313a.179.179,0,0,1,.045.249.2.2,0,0,1-.249.057l-1.969-1.313a.171.171,0,0,1-.045-.249Zm2.229,1.494a.159.159,0,0,0-.034-.215l-1.969-1.313a.148.148,0,0,0-.2.045.159.159,0,0,0,.034.215l1.969,1.313a.148.148,0,0,0,.2-.045Z" transform="translate(-164.389 -143.879)" fill="#fff"/>
        <path id="Path_490" data-name="Path 490" d="M189.795,177.17a.163.163,0,0,1,.226-.034l.826.645a.161.161,0,0,1,.023.226.163.163,0,0,1-.226.034l-.826-.645a.161.161,0,0,1-.023-.226Z" transform="translate(-167.628 -156.473)" fill="#f3f3f3"/>
        <path id="Path_491" data-name="Path 491" d="M189.7,177.048a.179.179,0,0,1,.249-.034l.826.645a.178.178,0,1,1-.215.283l-.826-.645a.179.179,0,0,1-.034-.249Zm1.086.849a.148.148,0,0,0-.023-.215l-.826-.645a.16.16,0,0,0-.215.034.148.148,0,0,0,.023.215l.826.645a.16.16,0,0,0,.215-.034Z" transform="translate(-167.549 -156.363)" fill="#fff"/>
        <path id="Path_492" data-name="Path 492" d="M175.313,176.315a.151.151,0,0,1,.226,0l1.675,1.663a.16.16,0,0,1,0,.226.151.151,0,0,1-.226,0l-1.675-1.663a.172.172,0,0,1,0-.226Z" transform="translate(-154.832 -155.732)" fill="#f3f3f3"/>
        <path id="Path_493" data-name="Path 493" d="M175.185,176.218a.178.178,0,0,1,.249,0l1.675,1.663a.176.176,0,1,1-.249.249l-1.675-1.663a.16.16,0,0,1,0-.249Zm1.9,1.89a.157.157,0,0,0,0-.215l-1.675-1.663a.152.152,0,0,0-.215.215l1.675,1.663a.139.139,0,0,0,.215,0Z" transform="translate(-154.704 -155.647)" fill="#fff"/>
        <path id="Path_494" data-name="Path 494" d="M176.061,190.823a.161.161,0,0,1,.226.011l.69.792a.165.165,0,0,1-.249.215l-.69-.792a.163.163,0,0,1,.023-.226Z" transform="translate(-155.478 -168.554)" fill="#f3f3f3"/>
        <path id="Path_495" data-name="Path 495" d="M175.936,190.789a.178.178,0,0,1,.249.011l.69.792a.17.17,0,0,1-.023.249.178.178,0,0,1-.249-.011l-.69-.792a.177.177,0,0,1,.023-.249Zm.905,1.03a.158.158,0,0,0,.023-.215l-.69-.792a.157.157,0,0,0-.238.2l.69.792a.147.147,0,0,0,.215.011Z" transform="translate(-155.364 -168.52)" fill="#fff"/>
        <path id="Path_496" data-name="Path 496" d="M162.036,187.216a.153.153,0,0,1,.226.045l1.313,1.958a.173.173,0,0,1-.045.226.153.153,0,0,1-.226-.045l-1.313-1.958a.173.173,0,0,1,.045-.226Z" transform="translate(-143.083 -165.377)" fill="#f3f3f3"/>
        <path id="Path_497" data-name="Path 497" d="M161.895,187.119a.181.181,0,0,1,.249.045l1.313,1.958a.174.174,0,0,1-.057.249.181.181,0,0,1-.249-.045l-1.313-1.958a.172.172,0,0,1,.057-.249Zm1.494,2.229a.147.147,0,0,0,.045-.2l-1.313-1.958a.157.157,0,0,0-.215-.034.147.147,0,0,0-.045.2l1.313,1.958a.171.171,0,0,0,.215.034Z" transform="translate(-142.942 -165.291)" fill="#fff"/>
        <path id="Path_498" data-name="Path 498" d="M159.893,201.616a.165.165,0,0,1,.226.057l.521.917a.168.168,0,0,1-.068.226.165.165,0,0,1-.226-.057l-.52-.917a.18.18,0,0,1,.068-.226Z" transform="translate(-141.177 -178.103)" fill="#f3f3f3"/>
        <path id="Path_499" data-name="Path 499" d="M159.837,201.519a.175.175,0,0,1,.238.057l.52.917a.172.172,0,0,1-.068.238.175.175,0,0,1-.238-.057l-.52-.917a.174.174,0,0,1,.068-.238Zm.679,1.2a.151.151,0,0,0,.057-.2l-.52-.917a.163.163,0,0,0-.2-.057.151.151,0,0,0-.057.2l.521.917a.148.148,0,0,0,.2.057Z" transform="translate(-141.122 -178.017)" fill="#fff"/>
        <path id="Path_500" data-name="Path 500" d="M146.867,195.3a.162.162,0,0,1,.215.079l.917,2.184a.172.172,0,0,1-.091.215.167.167,0,0,1-.215-.079l-.916-2.184a.172.172,0,0,1,.09-.215Z" transform="translate(-129.656 -172.531)" fill="#f3f3f3"/>
        <path id="Path_501" data-name="Path 501" d="M146.782,195.2a.188.188,0,0,1,.238.091l.917,2.184a.176.176,0,0,1-.1.226.187.187,0,0,1-.238-.091l-.917-2.184a.185.185,0,0,1,.1-.226Zm1.03,2.478a.145.145,0,0,0,.079-.192l-.917-2.184a.153.153,0,0,0-.2-.079.145.145,0,0,0-.079.192l.916,2.184a.157.157,0,0,0,.2.079Z" transform="translate(-129.572 -172.447)" fill="#fff"/>
        <path id="Path_502" data-name="Path 502" d="M142.036,209.068a.164.164,0,0,1,.215.1l.328,1a.16.16,0,0,1-.1.2.164.164,0,0,1-.215-.1l-.328-1a.156.156,0,0,1,.1-.2Z" transform="translate(-125.379 -184.694)" fill="#f3f3f3"/>
        <path id="Path_503" data-name="Path 503" d="M141.895,208.971a.176.176,0,0,1,.226.1l.328,1a.182.182,0,0,1-.113.226.176.176,0,0,1-.226-.1l-.328-1a.192.192,0,0,1,.113-.226Zm.441,1.3a.158.158,0,0,0,.1-.192l-.328-1a.151.151,0,0,0-.192-.091.157.157,0,0,0-.1.192l.328,1a.143.143,0,0,0,.192.091Z" transform="translate(-125.249 -184.609)" fill="#fff"/>
        <path id="Path_504" data-name="Path 504" d="M130.422,200.3a.153.153,0,0,1,.192.125l.475,2.32a.165.165,0,0,1-.136.192.152.152,0,0,1-.192-.124l-.475-2.32a.181.181,0,0,1,.136-.192Z" transform="translate(-115.101 -176.956)" fill="#f3f3f3"/>
        <path id="Path_505" data-name="Path 505" d="M130.4,200.208a.182.182,0,0,1,.215.136l.475,2.32a.171.171,0,0,1-.136.2.182.182,0,0,1-.215-.136l-.475-2.32a.168.168,0,0,1,.136-.2Zm.532,2.637a.157.157,0,0,0,.125-.181l-.475-2.32a.147.147,0,0,0-.181-.113.157.157,0,0,0-.124.181l.475,2.32a.162.162,0,0,0,.181.113Z" transform="translate(-115.074 -176.875)" fill="#fff"/>
        <path id="Path_506" data-name="Path 506" d="M122.976,212.92a.174.174,0,0,1,.192.136l.136,1.041a.165.165,0,0,1-.147.181.174.174,0,0,1-.192-.136l-.136-1.041a.165.165,0,0,1,.147-.181Z" transform="translate(-108.515 -188.105)" fill="#f3f3f3"/>
        <path id="Path_507" data-name="Path 507" d="M122.89,212.825a.181.181,0,0,1,.2.147l.136,1.041a.176.176,0,0,1-.158.192.18.18,0,0,1-.2-.147l-.136-1.041a.176.176,0,0,1,.158-.192Zm.17,1.358a.161.161,0,0,0,.136-.17l-.136-1.041a.152.152,0,0,0-.17-.125.161.161,0,0,0-.136.17l.136,1.041a.152.152,0,0,0,.17.124Z" transform="translate(-108.429 -188.021)" fill="#fff"/>
        <path id="Path_508" data-name="Path 508" d="M112.836,202.081a.164.164,0,0,1,.17.159V204.6a.17.17,0,0,1-.339,0V202.24a.172.172,0,0,1,.17-.159Z" transform="translate(-99.54 -178.533)" fill="#f3f3f3"/>
        <path id="Path_509" data-name="Path 509" d="M112.75,201.984a.177.177,0,0,1,.181.17v2.365a.181.181,0,0,1-.362,0v-2.365a.185.185,0,0,1,.181-.17Zm0,2.682a.16.16,0,0,0,.158-.147v-2.365a.152.152,0,0,0-.158-.147.16.16,0,0,0-.159.147v2.365a.169.169,0,0,0,.159.147Z" transform="translate(-99.454 -178.448)" fill="#fff"/>
        <path id="Path_510" data-name="Path 510" d="M102.463,212.922a.172.172,0,0,1,.158.17l-.079,1.052a.165.165,0,0,1-.181.147.172.172,0,0,1-.158-.17l.079-1.052a.165.165,0,0,1,.181-.147Z" transform="translate(-90.299 -188.107)" fill="#f3f3f3"/>
        <path id="Path_511" data-name="Path 511" d="M102.378,212.825a.184.184,0,0,1,.17.181l-.079,1.052a.177.177,0,0,1-.192.158.184.184,0,0,1-.17-.181l.079-1.052a.17.17,0,0,1,.192-.159Zm-.1,1.369a.151.151,0,0,0,.159-.136l.079-1.052a.159.159,0,0,0-.147-.158.151.151,0,0,0-.158.136l-.079,1.052a.169.169,0,0,0,.147.158Z" transform="translate(-90.213 -188.021)" fill="#fff"/>
        <path id="Path_512" data-name="Path 512" d="M92.192,200.326a.174.174,0,0,1,.136.192l-.464,2.32a.157.157,0,0,1-.192.124.174.174,0,0,1-.136-.192l.464-2.32a.169.169,0,0,1,.192-.125Z" transform="translate(-80.877 -176.982)" fill="#f3f3f3"/>
        <path id="Path_513" data-name="Path 513" d="M92.021,200.23a.184.184,0,0,1,.147.2l-.464,2.32a.182.182,0,0,1-.215.136.184.184,0,0,1-.147-.2l.464-2.32a.192.192,0,0,1,.215-.136Zm-.532,2.637a.162.162,0,0,0,.181-.113l.464-2.32a.16.16,0,0,0-.124-.181.162.162,0,0,0-.181.113l-.464,2.32a.164.164,0,0,0,.124.181Z" transform="translate(-80.706 -176.897)" fill="#fff"/>
        <path id="Path_514" data-name="Path 514" d="M81.824,209.013a.169.169,0,0,1,.124.2l-.283,1.018a.162.162,0,0,1-.2.113.169.169,0,0,1-.124-.2l.283-1.018a.162.162,0,0,1,.2-.113Z" transform="translate(-71.866 -184.65)" fill="#f3f3f3"/>
        <path id="Path_515" data-name="Path 515" d="M81.709,208.922a.172.172,0,0,1,.124.215l-.283,1.018a.181.181,0,0,1-.215.124.172.172,0,0,1-.124-.215l.283-1.018a.175.175,0,0,1,.215-.125Zm-.373,1.324a.157.157,0,0,0,.192-.1l.283-1.018a.144.144,0,0,0-.113-.181.157.157,0,0,0-.192.1l-.283,1.018a.162.162,0,0,0,.113.181Z" transform="translate(-71.751 -184.571)" fill="#fff"/>
        <path id="Path_516" data-name="Path 516" d="M72.237,195.261a.162.162,0,0,1,.091.215l-.905,2.184a.157.157,0,0,1-.215.079.176.176,0,0,1-.091-.215l.905-2.184a.157.157,0,0,1,.215-.079Z" transform="translate(-62.834 -172.494)" fill="#f3f3f3"/>
        <path id="Path_517" data-name="Path 517" d="M72.067,195.166a.176.176,0,0,1,.1.226l-.905,2.184a.179.179,0,0,1-.238.091.176.176,0,0,1-.1-.226l.905-2.184a.178.178,0,0,1,.238-.091Zm-1.03,2.478a.153.153,0,0,0,.2-.079l.905-2.184a.147.147,0,0,0-.091-.192.153.153,0,0,0-.2.079l-.905,2.184a.161.161,0,0,0,.091.192Z" transform="translate(-62.664 -172.41)" fill="#fff"/>
        <path id="Path_518" data-name="Path 518" d="M62.312,201.443a.17.17,0,0,1,.079.215l-.475.939a.165.165,0,0,1-.226.068.17.17,0,0,1-.079-.215l.475-.939a.165.165,0,0,1,.226-.068Z" transform="translate(-54.436 -177.952)" fill="#f3f3f3"/>
        <path id="Path_519" data-name="Path 519" d="M62.174,201.349a.173.173,0,0,1,.079.238l-.475.939a.177.177,0,1,1-.317-.158l.475-.939a.173.173,0,0,1,.238-.079Zm-.622,1.233a.149.149,0,0,0,.2-.068l.475-.939a.167.167,0,0,0-.068-.2.149.149,0,0,0-.2.068l-.475.939a.167.167,0,0,0,.068.2Z" transform="translate(-54.299 -177.87)" fill="#fff"/>
        <path id="Path_520" data-name="Path 520" d="M53.9,187.022a.156.156,0,0,1,.045.226l-1.313,1.958a.162.162,0,0,1-.226.045.156.156,0,0,1-.045-.226l1.313-1.958a.153.153,0,0,1,.226-.045Z" transform="translate(-46.255 -165.205)" fill="#f3f3f3"/>
        <path id="Path_521" data-name="Path 521" d="M53.8,186.925a.2.2,0,0,1,.057.249l-1.313,1.958a.179.179,0,0,1-.249.045.2.2,0,0,1-.057-.249l1.313-1.958a.181.181,0,0,1,.249-.045ZM52.3,189.154a.159.159,0,0,0,.215-.034l1.313-1.958a.147.147,0,0,0-.045-.2.159.159,0,0,0-.215.034l-1.313,1.946a.161.161,0,0,0,.045.215Z" transform="translate(-46.147 -165.12)" fill="#fff"/>
        <path id="Path_522" data-name="Path 522" d="M44.718,190.57a.163.163,0,0,1,.034.226l-.656.826a.161.161,0,0,1-.226.023.163.163,0,0,1-.034-.226l.656-.826a.161.161,0,0,1,.226-.023Z" transform="translate(-38.721 -168.335)" fill="#f3f3f3"/>
        <path id="Path_523" data-name="Path 523" d="M44.619,190.41a.179.179,0,0,1,.034.249l-.656.826a.168.168,0,0,1-.249.023.179.179,0,0,1-.034-.249l.656-.826a.168.168,0,0,1,.249-.023Zm-.849,1.075a.148.148,0,0,0,.215-.023l.656-.826a.16.16,0,0,0-.034-.215.148.148,0,0,0-.215.023l-.656.826a.159.159,0,0,0,.034.215Z" transform="translate(-38.611 -168.186)" fill="#fff"/>
        <path id="Path_524" data-name="Path 524" d="M37.875,175.927a.151.151,0,0,1,0,.226L36.2,177.817a.16.16,0,0,1-.226-.226l1.663-1.663a.164.164,0,0,1,.238,0Z" transform="translate(-31.765 -155.39)" fill="#f3f3f3"/>
        <path id="Path_525" data-name="Path 525" d="M37.77,175.831a.178.178,0,0,1,0,.249L36.1,177.743a.176.176,0,0,1-.249-.249l1.675-1.663a.177.177,0,0,1,.249,0Zm-1.912,1.9a.158.158,0,0,0,.215,0l1.675-1.663a.152.152,0,1,0-.215-.215l-1.675,1.663a.157.157,0,0,0,0,.215Z" transform="translate(-31.648 -155.304)" fill="#fff"/>
        <path id="Path_526" data-name="Path 526" d="M29.89,176.642a.16.16,0,0,1-.011.226l-.8.679a.165.165,0,0,1-.215-.249l.8-.679a.161.161,0,0,1,.226.023Z" transform="translate(-25.477 -156.014)" fill="#f3f3f3"/>
        <path id="Path_527" data-name="Path 527" d="M29.781,176.483a.177.177,0,0,1-.011.249l-.8.679a.169.169,0,0,1-.249-.023.177.177,0,0,1,.011-.249l.8-.679a.17.17,0,0,1,.249.023Zm-1.041.894a.158.158,0,0,0,.215.023l.8-.679a.157.157,0,0,0-.2-.238l-.8.679a.147.147,0,0,0-.011.215Z" transform="translate(-25.357 -155.866)" fill="#fff"/>
        <path id="Path_528" data-name="Path 528" d="M24.768,162.617a.153.153,0,0,1-.045.226l-1.969,1.313a.173.173,0,0,1-.226-.045.153.153,0,0,1,.045-.226l1.969-1.313a.178.178,0,0,1,.226.045Z" transform="translate(-19.903 -143.619)" fill="#f3f3f3"/>
        <path id="Path_529" data-name="Path 529" d="M24.694,162.477a.181.181,0,0,1-.045.249l-1.969,1.313a.174.174,0,0,1-.249-.057.181.181,0,0,1,.045-.249l1.969-1.313a.174.174,0,0,1,.249.057Zm-2.24,1.482a.147.147,0,0,0,.2.045l1.969-1.313a.156.156,0,0,0-.17-.26l-1.969,1.313a.16.16,0,0,0-.034.215Z" transform="translate(-19.817 -143.478)" fill="#fff"/>
        <path id="Path_530" data-name="Path 530" d="M18.269,160.436a.165.165,0,0,1-.057.226l-.917.52a.169.169,0,0,1-.226-.068.165.165,0,0,1,.057-.226l.917-.52a.168.168,0,0,1,.226.068Z" transform="translate(-15.089 -141.675)" fill="#f3f3f3"/>
        <path id="Path_531" data-name="Path 531" d="M18.28,160.34a.176.176,0,0,1-.057.238l-.917.52a.182.182,0,0,1-.238-.068.176.176,0,0,1,.057-.238l.917-.52a.182.182,0,0,1,.238.068Zm-1.2.679a.142.142,0,0,0,.2.057l.917-.52a.163.163,0,0,0,.057-.2.142.142,0,0,0-.2-.057l-.917.52a.156.156,0,0,0-.057.2Z" transform="translate(-15.089 -141.59)" fill="#fff"/>
        <path id="Path_532" data-name="Path 532" d="M15.082,147.437a.158.158,0,0,1-.091.215l-2.184.905a.172.172,0,0,1-.215-.091.158.158,0,0,1,.091-.215l2.184-.905a.162.162,0,0,1,.215.091Z" transform="translate(-11.145 -130.181)" fill="#f3f3f3"/>
        <path id="Path_533" data-name="Path 533" d="M15.094,147.267A.187.187,0,0,1,15,147.5l-2.184.905a.176.176,0,0,1-.226-.1.188.188,0,0,1,.091-.238l2.184-.905a.176.176,0,0,1,.226.1Zm-2.478,1.03a.161.161,0,0,0,.192.09l2.184-.905a.153.153,0,0,0,.079-.2.161.161,0,0,0-.192-.091l-2.184.905a.153.153,0,0,0-.079.2Z" transform="translate(-11.145 -130.022)" fill="#fff"/>
        <path id="Path_534" data-name="Path 534" d="M10.419,142.52a.164.164,0,0,1-.1.215l-1,.328a.16.16,0,0,1-.2-.1.164.164,0,0,1,.1-.215l1-.328a.156.156,0,0,1,.2.1Z" transform="translate(-8.077 -125.829)" fill="#f3f3f3"/>
        <path id="Path_535" data-name="Path 535" d="M10.26,142.379a.173.173,0,0,1-.113.226l-1,.328a.182.182,0,0,1-.226-.113.173.173,0,0,1,.113-.226l1-.328a.193.193,0,0,1,.226.113Zm-1.313.43a.157.157,0,0,0,.192.1l1-.328a.151.151,0,0,0,.091-.192.157.157,0,0,0-.192-.1l-1,.328a.156.156,0,0,0-.091.192Z" transform="translate(-7.907 -125.7)" fill="#fff"/>
        <path id="Path_536" data-name="Path 536" d="M9.089,130.809a.153.153,0,0,1-.124.192l-2.32.453a.165.165,0,0,1-.192-.136.153.153,0,0,1,.124-.192l2.32-.453a.168.168,0,0,1,.192.136Z" transform="translate(-5.729 -115.465)" fill="#f3f3f3"/>
        <path id="Path_537" data-name="Path 537" d="M9.117,130.7a.182.182,0,0,1-.136.215l-2.32.453a.176.176,0,0,1-.2-.147.182.182,0,0,1,.136-.215l2.32-.453a.176.176,0,0,1,.2.147Zm-2.637.509a.152.152,0,0,0,.17.124l2.32-.453a.147.147,0,0,0,.113-.181.152.152,0,0,0-.17-.125l-2.32.453a.152.152,0,0,0-.113.181Z" transform="translate(-5.733 -115.358)" fill="#fff"/>
        <path id="Path_538" data-name="Path 538" d="M6.385,123.266a.157.157,0,0,1-.136.181l-1.041.124a.165.165,0,0,1-.181-.147.157.157,0,0,1,.136-.181l1.041-.125a.172.172,0,0,1,.181.147Z" transform="translate(-4.472 -108.793)" fill="#f3f3f3"/>
        <path id="Path_539" data-name="Path 539" d="M6.312,123.18a.18.18,0,0,1-.147.2l-1.041.125a.176.176,0,0,1-.192-.158.18.18,0,0,1,.147-.2l1.041-.125a.176.176,0,0,1,.192.158Zm-1.369.159a.16.16,0,0,0,.17.136l1.041-.124a.152.152,0,0,0,.124-.17.16.16,0,0,0-.17-.136l-1.041.125a.152.152,0,0,0-.124.17Z" transform="translate(-4.388 -108.708)" fill="#fff"/>
        <path id="Path_540" data-name="Path 540" d="M7.235,113.707a.164.164,0,0,1-.158.17H4.712a.17.17,0,0,1,0-.34H7.076a.165.165,0,0,1,.158.17Z" transform="translate(-4.055 -100.332)" fill="#f3f3f3"/>
        <path id="Path_541" data-name="Path 541" d="M7.161,113.622a.177.177,0,0,1-.17.181H4.626a.181.181,0,0,1,0-.362H6.991a.177.177,0,0,1,.17.181Zm-2.682-.011a.16.16,0,0,0,.147.158H6.991a.152.152,0,0,0,.147-.158.16.16,0,0,0-.147-.159H4.626a.169.169,0,0,0-.147.159Z" transform="translate(-3.97 -100.247)" fill="#fff"/>
        <path id="Path_542" data-name="Path 542" d="M6.4,103.238a.172.172,0,0,1-.17.159l-1.052-.079a.165.165,0,0,1-.147-.181.172.172,0,0,1,.17-.158l1.052.079a.184.184,0,0,1,.147.181Z" transform="translate(-4.474 -91.006)" fill="#e2e2e2"/>
        <path id="Path_543" data-name="Path 543" d="M6.324,103.153a.184.184,0,0,1-.181.17l-1.052-.079a.178.178,0,0,1-.158-.192.184.184,0,0,1,.181-.17l1.052.079a.2.2,0,0,1,.158.192Zm-1.38-.1a.143.143,0,0,0,.136.159l1.052.079a.159.159,0,0,0,.158-.147.143.143,0,0,0-.136-.158L5.1,102.9a.169.169,0,0,0-.158.147Z" transform="translate(-4.389 -90.92)" fill="#fff"/>
        <path id="Path_544" data-name="Path 544" d="M9.283,93.075a.174.174,0,0,1-.192.136l-2.32-.475a.157.157,0,0,1-.124-.192.174.174,0,0,1,.192-.136l2.32.464a.19.19,0,0,1,.124.2Z" transform="translate(-5.9 -81.669)" fill="#f3f3f3"/>
        <path id="Path_545" data-name="Path 545" d="M9.213,92.99a.185.185,0,0,1-.2.147l-2.32-.464a.182.182,0,0,1-.136-.215.185.185,0,0,1,.2-.147l2.32.464a.192.192,0,0,1,.136.215Zm-2.637-.532a.162.162,0,0,0,.113.181l2.32.464a.16.16,0,0,0,.181-.124.162.162,0,0,0-.113-.181l-2.32-.464a.163.163,0,0,0-.181.124Z" transform="translate(-5.819 -81.584)" fill="#fff"/>
        <path id="Path_546" data-name="Path 546" d="M10.4,82.793a.169.169,0,0,1-.2.124l-1.018-.283a.162.162,0,0,1-.113-.2.169.169,0,0,1,.2-.124l1.018.283a.162.162,0,0,1,.113.2Z" transform="translate(-8.033 -72.744)" fill="#f3f3f3"/>
        <path id="Path_547" data-name="Path 547" d="M10.33,82.678a.172.172,0,0,1-.215.124L9.1,82.519a.181.181,0,0,1-.124-.215.172.172,0,0,1,.215-.124l1.018.283a.175.175,0,0,1,.124.215ZM9.006,82.3a.157.157,0,0,0,.1.192l1.018.283a.144.144,0,0,0,.181-.113.157.157,0,0,0-.1-.192l-1.018-.283a.162.162,0,0,0-.181.113Z" transform="translate(-7.953 -72.629)" fill="#fff"/>
        <path id="Path_548" data-name="Path 548" d="M15.288,73.291a.162.162,0,0,1-.215.091l-2.184-.905a.172.172,0,0,1-.091-.215.162.162,0,0,1,.215-.091l2.184.905a.162.162,0,0,1,.091.215Z" transform="translate(-11.327 -63.786)" fill="#f3f3f3"/>
        <path id="Path_549" data-name="Path 549" d="M15.288,73.23a.176.176,0,0,1-.226.1l-2.184-.905a.179.179,0,0,1-.091-.238.176.176,0,0,1,.226-.1l2.184.905a.188.188,0,0,1,.091.238ZM12.809,72.2a.153.153,0,0,0,.079.2l2.184.905a.147.147,0,0,0,.192-.091.154.154,0,0,0-.079-.2L13,72.109a.151.151,0,0,0-.192.091Z" transform="translate(-11.316 -63.713)" fill="#fff"/>
        <path id="Path_550" data-name="Path 550" d="M18.506,63.377a.17.17,0,0,1-.215.079l-.939-.475a.162.162,0,0,1-.068-.226.17.17,0,0,1,.215-.079l.939.475a.168.168,0,0,1,.068.226Z" transform="translate(-15.281 -55.4)" fill="#f3f3f3"/>
        <path id="Path_551" data-name="Path 551" d="M18.349,63.337a.173.173,0,0,1-.238.079l-.939-.475a.177.177,0,1,1,.158-.317l.939.475a.17.17,0,0,1,.079.238Zm-1.222-.622a.149.149,0,0,0,.068.2l.939.475a.167.167,0,0,0,.2-.068.149.149,0,0,0-.068-.2l-.951-.475a.14.14,0,0,0-.192.068Z" transform="translate(-15.113 -55.348)" fill="#fff"/>
        <path id="Path_552" data-name="Path 552" d="M25.085,55.152a.155.155,0,0,1-.226.045L22.9,53.9a.162.162,0,0,1-.045-.226.153.153,0,0,1,.226-.045l1.969,1.313a.149.149,0,0,1,.034.215Z" transform="translate(-20.197 -47.39)" fill="#f3f3f3"/>
        <path id="Path_553" data-name="Path 553" d="M24.974,55.056a.2.2,0,0,1-.249.057L22.767,53.8a.179.179,0,0,1-.045-.249.2.2,0,0,1,.249-.057l1.958,1.313a.171.171,0,0,1,.045.249Zm-2.229-1.494a.159.159,0,0,0,.034.215l1.969,1.313a.147.147,0,0,0,.2-.045.159.159,0,0,0-.034-.215l-1.969-1.313a.147.147,0,0,0-.2.045Z" transform="translate(-20.074 -47.282)" fill="#fff"/>
        <path id="Path_554" data-name="Path 554" d="M30.154,46.063a.163.163,0,0,1-.226.034l-.826-.645a.161.161,0,0,1-.023-.226.163.163,0,0,1,.226-.034l.826.645a.161.161,0,0,1,.023.226Z" transform="translate(-25.685 -39.941)" fill="#f3f3f3"/>
        <path id="Path_555" data-name="Path 555" d="M30,45.964a.179.179,0,0,1-.249.034l-.826-.645a.178.178,0,1,1,.215-.283l.826.645a.179.179,0,0,1,.034.249Zm-1.086-.849a.148.148,0,0,0,.023.215l.826.645a.16.16,0,0,0,.215-.034.148.148,0,0,0-.023-.215l-.826-.645a.16.16,0,0,0-.215.034Z" transform="translate(-25.52 -39.831)" fill="#fff"/>
        <path id="Path_556" data-name="Path 556" d="M38.177,39.189a.151.151,0,0,1-.226,0l-1.686-1.663a.16.16,0,0,1,0-.226.151.151,0,0,1,.226,0l1.675,1.663a.161.161,0,0,1,.011.226Z" transform="translate(-32.022 -32.954)" fill="#f3f3f3"/>
        <path id="Path_557" data-name="Path 557" d="M38.06,39.115a.178.178,0,0,1-.249,0l-1.675-1.663a.176.176,0,0,1,.249-.249l1.675,1.663a.16.16,0,0,1,0,.249Zm-1.9-1.89a.157.157,0,0,0,0,.215L37.834,39.1a.152.152,0,0,0,.215-.215l-1.675-1.675a.148.148,0,0,0-.215.011Z" transform="translate(-31.905 -32.869)" fill="#fff"/>
        <path id="Path_558" data-name="Path 558" d="M44.915,31.331a.16.16,0,0,1-.226-.011L44,30.528a.165.165,0,0,1,.249-.215l.69.792a.163.163,0,0,1-.023.226Z" transform="translate(-38.861 -26.782)" fill="#f3f3f3"/>
        <path id="Path_559" data-name="Path 559" d="M44.777,31.126a.178.178,0,0,1-.249-.011l-.69-.792a.169.169,0,0,1,.023-.249.178.178,0,0,1,.249.011l.69.792a.177.177,0,0,1-.023.249Zm-.905-1.03a.158.158,0,0,0-.023.215l.69.792a.157.157,0,0,0,.238-.2l-.69-.792a.147.147,0,0,0-.215-.011Z" transform="translate(-38.712 -26.577)" fill="#fff"/>
        <path id="Path_560" data-name="Path 560" d="M54.169,26.017a.153.153,0,0,1-.226-.045l-1.324-1.958a.173.173,0,0,1,.045-.226.153.153,0,0,1,.226.045L54.2,25.79a.16.16,0,0,1-.034.226Z" transform="translate(-46.486 -21.038)" fill="#f3f3f3"/>
        <path id="Path_561" data-name="Path 561" d="M54.028,25.942a.181.181,0,0,1-.249-.045l-1.313-1.958a.174.174,0,0,1,.057-.249.181.181,0,0,1,.249.045l1.313,1.958a.172.172,0,0,1-.057.249Zm-1.494-2.229a.147.147,0,0,0-.045.2L53.8,25.874a.157.157,0,0,0,.215.034.147.147,0,0,0,.045-.2L52.75,23.758a.161.161,0,0,0-.215-.045Z" transform="translate(-46.345 -20.952)" fill="#fff"/>
        <path id="Path_562" data-name="Path 562" d="M62.3,19.528a.165.165,0,0,1-.226-.057l-.521-.917a.168.168,0,0,1,.068-.226.165.165,0,0,1,.226.057l.521.917a.18.18,0,0,1-.068.226Z" transform="translate(-54.382 -16.224)" fill="#f3f3f3"/>
        <path id="Path_563" data-name="Path 563" d="M62.2,19.539a.176.176,0,0,1-.238-.057l-.521-.917a.172.172,0,0,1,.068-.238.176.176,0,0,1,.238.057l.521.917a.174.174,0,0,1-.068.238Zm-.679-1.2a.151.151,0,0,0-.057.2l.521.917a.162.162,0,0,0,.2.057.151.151,0,0,0,.057-.2l-.521-.917a.148.148,0,0,0-.2-.057Z" transform="translate(-54.279 -16.224)" fill="#fff"/>
        <path id="Path_564" data-name="Path 564" d="M72.345,16.329a.163.163,0,0,1-.215-.079l-.917-2.184a.172.172,0,0,1,.091-.215.163.163,0,0,1,.215.079l.917,2.184a.172.172,0,0,1-.091.215Z" transform="translate(-62.92 -12.278)" fill="#f3f3f3"/>
        <path id="Path_565" data-name="Path 565" d="M72.175,16.256a.188.188,0,0,1-.238-.091l-.917-2.184a.176.176,0,0,1,.1-.226.188.188,0,0,1,.238.091l.917,2.184a.185.185,0,0,1-.1.226Zm-1.03-2.478a.145.145,0,0,0-.079.192l.917,2.184a.153.153,0,0,0,.2.079.145.145,0,0,0,.079-.192l-.917-2.184a.157.157,0,0,0-.2-.079Z" transform="translate(-62.749 -12.194)" fill="#fff"/>
        <path id="Path_566" data-name="Path 566" d="M81.552,11.519a.164.164,0,0,1-.215-.1l-.328-1a.16.16,0,0,1,.1-.2.178.178,0,0,1,.215.1l.328,1a.156.156,0,0,1-.1.2Z" transform="translate(-71.571 -9.075)" fill="#f3f3f3"/>
        <path id="Path_567" data-name="Path 567" d="M81.564,11.411a.176.176,0,0,1-.226-.1l-.328-1a.182.182,0,0,1,.113-.226.176.176,0,0,1,.226.1l.328,1a.192.192,0,0,1-.113.226Zm-.441-1.3a.157.157,0,0,0-.1.192l.328,1a.151.151,0,0,0,.192.091.157.157,0,0,0,.1-.192l-.328-1a.143.143,0,0,0-.192-.091Z" transform="translate(-71.572 -8.955)" fill="#fff"/>
        <path id="Path_568" data-name="Path 568" d="M92.084,10.252a.153.153,0,0,1-.192-.124l-.475-2.32a.165.165,0,0,1,.136-.192.153.153,0,0,1,.192.124l.475,2.32a.181.181,0,0,1-.136.192Z" transform="translate(-80.769 -6.778)" fill="#f3f3f3"/>
        <path id="Path_569" data-name="Path 569" d="M91.913,10.182a.182.182,0,0,1-.215-.136l-.475-2.32a.171.171,0,0,1,.136-.2.182.182,0,0,1,.215.136l.475,2.32a.168.168,0,0,1-.136.2Zm-.532-2.637a.157.157,0,0,0-.124.181l.475,2.32a.147.147,0,0,0,.181.113.157.157,0,0,0,.124-.181l-.475-2.32a.162.162,0,0,0-.181-.113Z" transform="translate(-80.598 -6.697)" fill="#fff"/>
        <path id="Path_570" data-name="Path 570" d="M102.038,7.353a.174.174,0,0,1-.192-.136l-.136-1.041A.165.165,0,0,1,101.857,6a.174.174,0,0,1,.192.136l.136,1.041a.165.165,0,0,1-.147.181Z" transform="translate(-89.862 -5.35)" fill="#f3f3f3"/>
        <path id="Path_571" data-name="Path 571" d="M101.952,7.281a.18.18,0,0,1-.2-.147l-.136-1.041a.176.176,0,0,1,.158-.192.18.18,0,0,1,.2.147l.136,1.041a.176.176,0,0,1-.158.192Zm-.17-1.358a.161.161,0,0,0-.136.17l.136,1.041a.152.152,0,0,0,.17.124.161.161,0,0,0,.136-.17l-.136-1.041a.152.152,0,0,0-.17-.124Z" transform="translate(-89.777 -5.266)" fill="#fff"/>
        <circle id="Ellipse_27" data-name="Ellipse 27" cx="13.398" cy="13.398" r="13.398" transform="translate(0 0)" fill="url(#linear-gradient-2)"/>
      </g>
      <g transform="matrix(1, 0, 0, 1, -6, -4.03)" filter="url(#Path_572)">
        <path id="Path_572-2" data-name="Path 572" d="M71.242,51.15,60.435,58.075h-.011v.011l-.011.011L53.669,69.221l9.912-7.977.011-.011v-.011Z" transform="translate(-41.4 -41.3)" fill="rgba(0,0,0,0.05)"/>
      </g>
      <path id="Path_573" data-name="Path 573" d="M121.6,45.628l-10.682,7.593,3.168,3.146L121.6,45.628" transform="translate(-97.966 -40.451)" fill="#cd151e"/>
      <path id="Path_574" data-name="Path 574" d="M111.019,53.2l1.6,1.573,9.075-9.143Z" transform="translate(-98.051 -40.451)" fill="#fa5153"/>
      <path id="Path_575" data-name="Path 575" d="M54.207,110.438l3.168,3.146-10.682,7.593Z" transform="translate(-41.24 -97.691)" fill="#acacac"/>
      <path id="Path_576" data-name="Path 576" d="M46.694,121.176l9.109-9.166-1.6-1.573Z" transform="translate(-41.24 -97.691)" fill="#eee"/>
    </g>
  </g>
</svg>
